<svg xmlns="http://www.w3.org/2000/svg" width="268" height="56" fill="#fff" viewBox="0 0 268 56">
  <path fill="#0075ac" fill-rule="evenodd" d="M66.1 9.87h4.82V34.5H66.1v-2.52c-1.05 1.53-2.51 2.86-4.93 2.86-3.6 0-6.92-2.97-6.92-9.21v-.54c0-6.25 3.3-9.21 6.92-9.21 2.45 0 3.88 1.33 4.93 2.69v-8.7Zm.07 15.66v-.34c0-3.1-1.56-5.09-3.57-5.09-2 0-3.53 1.98-3.53 5.09v.34c0 3.1 1.53 5.08 3.53 5.08 2 0 3.57-1.98 3.57-5.08Zm8.64-11.26v-4.4h5.02v4.4h-5.02Zm.1 20.23V16.22h4.82V34.5h-4.82Zm7.97-8.94v-.3c0-5.43 3.36-9.39 7.95-9.39 5.2 0 7.74 4.27 7.74 9.72 0 .28 0 .86-.04 1.58H87.67c.4 2.42 1.9 3.68 3.94 3.68 1.5 0 2.65-.68 3.8-1.8l2.48 2.93c-1.622 1.891-3.999 2.964-6.49 2.93-4.82 0-8.52-3.65-8.52-9.35Zm11.04-1.6c-.2-2.52-1.3-4.1-3.1-4.1-1.76 0-2.91 1.5-3.18 4.1h6.28Zm15.86-13.34h8.82c2.65 0 4.86.72 6.22 2.08 1.066 1.077 1.645 2.545 1.6 4.06v.1c0 2.8-1.53 4.3-3.23 5.22 2.55.99 4.24 2.56 4.24 5.7v.17c0 4.3-3.43 6.55-8.59 6.55h-9.06V10.62Zm11.78 7.03c0-1.74-1.22-2.66-3.33-2.66h-3.67v5.38H118c2.18 0 3.57-.88 3.57-2.69v-.03h-.01Zm-2.68 6.89h-4.32v5.6h4.42c2.2 0 3.6-.96 3.6-2.8v-.04c0-1.7-1.26-2.76-3.7-2.76Zm10.9 4.74v-.2c0-4.03 2.61-5.84 6.34-5.84 1.53 0 2.69.3 3.8.75v-.54c0-2.12-1.25-3.21-3.42-3.21-1.7 0-3.06.54-4.18 1.03l-1.32-3.8c1.76-.88 3.6-1.46 6.21-1.46 2.48 0 4.35.68 5.54 1.88 1.25 1.26 1.86 3.17 1.86 5.52V34.5h-4.72v-1.98c-1.09 1.51-2.859 2.38-4.72 2.32-2.98 0-5.4-2.02-5.4-5.56h.01Zm10.22-.79v-1.53c-.845-.383-1.762-.581-2.69-.58-1.76 0-2.88.88-2.88 2.56V29c0 1.5.95 2.26 2.34 2.3 1.87.02 3.23-1.13 3.23-2.8v-.01Zm17.87-12.28h4.89l-5.98 18.52c-1.22 3.66-2.61 5.06-5.46 5.06-1.375-.009-2.723-.389-3.9-1.1l1.32-3.61c.57.34 1.32.61 1.97.61.74 0 1.22-.27 1.56-1.16l-6.18-18.32h5.02l3.43 12.12 3.33-12.12Zm5.8 9.35v-.3c0-5.43 3.37-9.39 7.95-9.39 5.2 0 7.75 4.27 7.75 9.72 0 .28 0 .86-.04 1.58h-10.86c.4 2.42 1.9 3.68 3.94 3.68 1.49 0 2.64-.68 3.8-1.8l2.48 2.93c-1.622 1.891-3.999 2.964-6.49 2.93-4.82 0-8.52-3.65-8.52-9.35h-.01Zm11.04-1.6c-.2-2.52-1.29-4.1-3.09-4.1-1.76 0-2.92 1.5-3.19 4.1h6.28Zm7.76-7.75h4.82v3.24c.89-2.21 2.34-3.68 4.93-3.54v5.25h-.2c-2.96 0-4.73 1.84-4.73 5.66v7.68h-4.82V16.2v.01Zm12.12-1.94v-4.4h5.03v4.4h-5.03Zm.1 20.23V16.22h4.83V34.5h-4.83Zm7.4-2.19 2.1-3.4c1.63 1.26 3.36 2.04 4.86 2.04 1.35 0 1.93-.65 1.93-1.4v-.07c0-1.05-1.36-1.5-3.33-2.35-2.58-1.12-4.79-2.42-4.79-5.53v-.06c0-3.52 2.72-5.6 6.25-5.6 1.97 0 4.18.68 6.01 1.98l-1.93 3.48c-1.36-.89-2.86-1.57-4.14-1.57-1.16 0-1.77.58-1.77 1.3v.07c0 .95 1.36 1.5 3.3 2.38 2.64 1.26 4.81 2.6 4.81 5.5v.06c0 3.79-2.78 5.7-6.41 5.7-2.14 0-4.69-.72-6.9-2.53h.01Zm15.36-6.68v-.4c0-5.43 3.5-9.36 8.42-9.36 2.62 0 4.38.9 5.95 2.46l-2.62 3.51c-.88-.92-1.8-1.63-3.26-1.63-2.2 0-3.7 2.11-3.7 5.08v.13c0 3.04 1.4 5.15 3.8 5.15 1.43 0 2.35-.68 3.3-1.67l2.55 3.21c-1.519 1.835-3.799 2.867-6.18 2.8-4.83 0-8.26-3.9-8.26-9.28ZM234.3 9.87h4.82v8.8c1.05-1.46 2.38-2.8 4.68-2.8 3.4 0 5.37 2.4 5.37 6.18V34.5h-4.82V23.48c0-2.15-.95-3.24-2.59-3.24-1.59 0-2.64 1.1-2.64 3.24V34.5h-4.82V9.87Zm33.52 15.73c0 .27 0 .85-.03 1.56h-10.87c.4 2.43 1.9 3.69 3.94 3.69 1.5 0 2.65-.68 3.8-1.81l2.48 2.93c-1.616 1.894-3.991 2.971-6.48 2.94-4.82 0-8.52-3.65-8.52-9.35v-.3c0-5.43 3.36-9.39 7.94-9.39 5.2 0 7.74 4.27 7.74 9.73Zm-10.93-1.64h6.28c-.2-2.53-1.29-4.1-3.09-4.1-1.77 0-2.92 1.5-3.2 4.1h.01ZM35.94 12.36c3.612 2.646 6.186 6.469 7.28 10.81.03.1.07.5.08.57.05.31-.17.6-.48.64-.224.029-.443-.077-.56-.27-2.248-2.724-5.197-4.781-8.53-5.95 0 0 10.16 6.3 7.42 18.82-.01.08-.04.18-.08.28 0 .21-.16.4-.38.43-.24.04-.47-.14-.5-.47-.06-.13-.1-.28-.13-.4-1.7-6.1-5.95-9.9-5.95-9.9s6.16 10.42-2.86 21.52c-.01.02-.34.38-.67.26-.12-.05-.28-.22-.2-.54 2.95-8.82-.37-15.26-.37-15.26s-.26 11.3-11.55 17.8c-.32.19-1.18.63-1.53.38-.16-.1-.18-.37.03-.63 6.02-6.77 5.98-15.86 5.98-15.86S17.4 44.18 4.78 44.88c-.307.041-.589-.173-.63-.48-.034-.262.12-.512.37-.6 13.1-6.22 13.73-17.06 13.73-17.06-2.88 6.21-12.01 6.14-12.46 4.98-.72-1.86-1.14-4.23.67-4.79.47-.13.9-.15 1.33-.09.856.97 2.086 1.527 3.38 1.53 2.51 0 3.87-2.3 3.87-4.82 0-.18-.03-.36-.04-.54-1.912-.476-3.935-.17-5.62.85-1.39.78-2.41 1.69-3.54 2.06-.5.09-2.78.95-4.22-.6-.489-.557-.747-1.279-.72-2.02.36.45.91.9 1.69 1.06 1.29.28 2.69-.25 4.78-1.22 1.919-.917 4.083-1.191 6.17-.78.48.1 1.08.36 1.46.55-.22-2.17-1.53-3.67-3.82-3.67-1.7 0-3.17.93-3.95 2.31-.16.15-.33.3-.5.42-1.7 1.2-5.94 1.35-5.95-4.3 0-1.14 3.04-2 3.04-2s-.9-.47-3.02 1.08c-.6.45-1.11-2.04-.57-2.59 1.03-1.03 5.9-3.77 8.45-5.25 1.1-.65 1.7-3.02 3.99-4.23 1.48-.79 3.8-1.13 5.84-1.26.3-.84.84-1.55 1.59-2.04 1.15-.71 2.555-.878 3.84-.46-.12.923-.546 1.779-1.21 2.43.14 0 7 .27 13.65 5.57.56.4 1.31.88 2.1 1.26 1.72.83 2.75-.15 2.88.28.12.43.13 1.3-.62 1.78-2.08 1.3-3.75.5-4.8.12Zm-33.69 4.7c-.081.033-.155.081-.22.14.09-.04.15-.09.22-.13v-.01Zm8.37-5.01c1.65-.41 1.8.29 2.73-.1.88-.36.79-.93 2.04-1.77-1.27-.04-2.05-.73-2.97-.31-.86.39-.53 1.17-1.8 2.18Z" vector-effect="non-scaling-stroke"/>
</svg>
