<svg xmlns="http://www.w3.org/2000/svg" width="205" height="49" viewBox="0 0 205 49" preserveAspectRatio=""><path fill="#0E2C4F" fill-rule="evenodd" d="M111.6603 23.95997v-7.98596l8.3591 8.52547c.10745.10821.21334.2159.42875.2159h.21335c.21592 0 .42875-.2159.42875-.43233V9.82195c0-.2159-.21283-.43233-.42875-.43233h-2.572c-.21334 0-.42565.21643-.42565.43233v7.66237l-8.36065-8.0947c-.10693-.10717-.32234-.2159-.42772-.2159h-.32027c-.21593 0-.42927.10873-.32337.43233v14.35392c0 .2159.21334.43182.42875.43182h2.5725c.21387 0 .42721-.21487.42721-.43182zm-7.71494 8.85115c.64364 0 1.39473.32465 1.93041.75698.10693.10717.21283.10717.32079 0l.75109-.86415c.10693-.10977.10693-.21539 0-.32464-.85905-.7549-1.82297-1.1867-3.10922-1.1867-2.57251 0-4.60779 2.15802-4.60779 4.74683 0 2.59036 2.03528 4.64122 4.60779 4.64122 1.17829 0 2.25017-.43181 3.10922-1.29388.10693-.10978.10693-.21747 0-.32464l-.75109-.86415c-.10796-.1077-.21386-.1077-.32079 0-.53568.43181-1.18139.75437-1.93041.75437-1.60756 0-2.89278-1.40157-2.89278-3.02062 0-1.61904 1.28522-3.02062 2.89278-3.02062zm12.11093-1.51135h-1.1819c-.10642 0-.21335.10978-.21335.2154v3.4545h-4.07262v-3.4545c0-.1077-.10693-.2154-.21386-.2154h-1.17829c-.10641 0-.2154.10978-.2154.2154v8.52598c0 .1077.11002.21487.2154.21487h1.1783c.10795 0 .21385-.10717.21385-.21487v-3.5622h4.07262v3.5622c0 .1077.10797.21487.21335.21487h1.1819c.10693 0 .21283-.10717.21283-.21487v-8.52599c0-.10561-.10693-.21539-.21283-.21539zm-14.46803-17.16071c0-.97184-.75006-1.61905-1.60756-1.61905h-3.2146v3.34526h3.2146c.8575 0 1.60756-.75593 1.60756-1.72621zm-.42875 10.144l-2.89382-5.71973h-1.4996v5.50486c0 .21486-.21437.43129-.42875.43129h-2.5725c-.21335 0-.42772-.21643-.42772-.4313V9.82196h.10641c0-.2159.2149-.43233.42927-.43233h6.4292c2.67892 0 4.71472 2.05138 4.71472 4.6407 0 1.94369-1.1783 3.56221-3.2146 4.3171l2.89226 5.50486c.11003.3236 0 .6472-.32027.6472h-2.8933c-.2149 0-.3213-.1077-.3213-.21643zm88.72726-14.89344h-8.89323c-.21541 0-.42875.10873-.42875.43233v14.4611c0 .21643.21334.43234.42875.43234h8.89323c.21541 0 .42875-.21591.42875-.43234v-2.37342c0-.2159-.21334-.43181-.42875-.43181h-5.89404v-2.91449h4.9322c.2123 0 .42616-.2159.42616-.4313V15.7581c0-.21643-.21386-.43233-.42617-.43233h-4.93219v-2.69858h5.89404c.21541 0 .42875-.21591.42875-.43078V9.82195c.00104-.21486-.21334-.43233-.42875-.43233zM96.97944 31.29977h-1.17778c-.10744 0-.21489.10978-.21489.2154v8.52598c0 .1077.10745.21487.2149.21487h1.17777c.10796 0 .21489-.10717.21489-.21487v-8.52599c0-.10561-.10693-.21539-.2149-.21539zm55.6168 0h-1.17777c-.11003 0-.21593.10978-.21593.2154v5.39611l-5.2509-5.6115c0-.10718-.10745-.10718-.21438-.10718h-.21231c-.10952 0-.21541.10717-.21541.21487v8.74138c0 .10925.10693.21694.2154.21694h1.17882c.10796 0 .21334-.10977.21334-.21694v-5.6115l5.2504 5.82844c.10796.10718.21334.10718.32337.10718h.10692c.10745 0 .21335-.10718.21335-.21487v-8.74294c0-.10561-.10797-.21539-.2149-.21539zm-21.11161-11.43995c0-.86311-.53568-1.51135-1.60756-1.51135h-1.8209v3.1304l1.715-.00001v-.1077c1.07188-.00103 1.71346-.54054 1.71346-1.51134zm-3.53488-4.3171h1.82039c.85802 0 1.39473-.6472 1.39473-1.51136 0-.8631-.53671-1.5103-1.39473-1.5103h-1.82039v3.02165zm7.07182 4.8566c0 2.5909-2.14324 4.20941-4.7142 4.20941h-5.35836c-.21334 0-.42875-.2159-.42875-.43181V9.823c0-.21591.2154-.43234.42875-.43234h5.03809c2.5694 0 4.60675 1.72778 4.60675 3.9935.10641 1.72622-1.17932 2.91449-2.35658 3.454 1.2847.42973 2.7843 1.40261 2.7843 3.56116zm-3.2146 12.95131c-.21231-.21486-.53568-.43181-.85802-.43181h-2.25017v2.59036h2.0358v-.10769c.96597 0 1.71603-1.07901 1.07239-2.05086zm-.10642 3.34578l1.71398 3.23705c.10744.21539 0 .32464-.21231.32464h-1.39525c-.10642 0-.21231-.10925-.21231-.10925l-1.7176-3.45244h-1.2847v3.34682c0 .1077-.10693.21487-.21282.21487h-1.1814c-.1064 0-.21334-.10925-.21334-.21487v-8.52599c0-.1077.10797-.21747.21335-.21747h3.64438c1.49908 0 2.78534 1.29649 2.78534 2.80784 0 1.1841-.74954 2.15803-1.92732 2.5888zm45.2214-20.9383h-4.28648c-.21335 0-.42875.2159-.42875.43076v1.83496c0 .2159.2154.43233.42875.43233h1.3937v2.37446c-.53568.21487-1.07136.3236-1.60705.3236-2.35916.10717-4.50189-1.72778-4.50189-4.20993-.10692-2.37446 1.82297-4.42428 4.17956-4.42428 1.07136 0 1.92938.3236 2.78533 1.07954.11003.10717.32337.10717.5362 0l1.71759-1.83495c.21334-.1077.21334-.43234 0-.54003-1.50115-1.29544-3.43053-2.05086-5.25143-2.05086-4.17852 0-7.82394 3.3463-7.82394 7.6634s3.43053 7.77058 7.717 7.77058c3.10458 0 5.35837-1.40365 5.35837-1.40365.1064 0 .21334-.1077.21334-.3236v-6.69157c-.00207-.21486-.21438-.43077-.4303-.43077zm-52.50862 15.54166h-5.25091c-.10693 0-.21283.10978-.21283.32465v8.52443c0 .10925.10693.21694.21283.21694h5.25091c.10693 0 .21592-.10977.21592-.21694V39.0693c0-.10717-.11002-.21487-.21592-.21487h-3.85825v-2.37341h3.2146c.10797 0 .21387-.10926.21387-.21539v-1.07902c0-.10977-.10693-.21694-.21386-.21694h-3.2146v-2.15855h3.85824c.10693 0 .21592-.10978.21592-.21487v-1.07902c0-.1077-.11002-.21747-.21592-.21747zm37.93417 4.20941h-2.46558c-.10693 0-.21334.10718-.21334.21695v.86259c0 .1077.10744.21643.21334.21643h1.07188v1.61956c-.21386.10717-.74954.32256-1.49753.32256-1.60756 0-2.89433-1.2944-2.89433-2.91344 0-1.61905 1.28677-3.0227 2.89433-3.0227.6421 0 1.39163.21746 1.92783.75697.10641.10717.2154.10717.32234 0l.74902-.86415c.10693-.10977.10693-.21539 0-.32464-.85595-.7549-1.92783-1.1867-3.10819-1.1867-2.56889 0-4.71213 2.15802-4.71213 4.74683 0 2.59036 2.03321 4.64122 4.60624 4.64122 1.9299 0 3.21511-.86415 3.21511-.86415.10693-.1077.10693-.1077.10693-.21486v-3.7776c-.00258-.1077-.10796-.21487-.21592-.21487zm-20.8962-4.2094c-.10642 0-.21284.10977-.21284.21538v5.39612c0 1.07902-.6457 1.94316-1.9304 1.94316-1.28368 0-1.92939-.86414-1.92939-1.94316v-5.39612c0-.1077-.10693-.21539-.21386-.21539h-1.1783c-.10692 0-.2154.10978-.2154.2154v5.39611c0 1.94316 1.50063 3.45451 3.64387 3.45451 2.14324 0 3.64284-1.51135 3.64284-3.45451v-5.39612c-.10693-.1077-.21231-.21539-.32234-.21539h-1.28419zM25.39705 20.83061H12.32325c-.10693 0-.10693.1077-.10693.1077v1.079l1.1788 2.80576v7.98804c0 .1077.10745.1077.10745.1077h10.60824c.10796 0 .10796-.1077.10796-.1077v-7.98804l1.1783-2.80575V20.9383c.10692-.1077 0-.1077 0-.1077zm64.51056-1.94369V9.82195c-.10693-.3236-.3213-.43233-.53568-.43233h-2.5725c-.21335 0-.42773.21643-.42773.43233v8.85012c0 1.61852-.8575 2.58932-2.78688 2.58932-1.92886 0-2.78585-1.07901-2.78585-2.58932V9.82195c0-.2159-.21438-.43233-.42927-.43233H77.6908c-.21334 0-.42772.21643-.42772.43233v9.06498c0 3.23757 2.46403 5.93615 6.32176 5.93615 3.85825 0 6.3228-2.58985 6.3228-5.93615zm-68.04646-5.28738h-6.10842l-4.60779 4.64018c-.10796 0 0 .21643.10693.21643h15.11013c.10642 0 .21335-.10873.21335-.21643l-4.60779-4.64018h-.10641zm-6.3228-2.15855h6.64359c.10692 0 .21489-.21643.10692-.21643l-3.32153-4.533c0-.10718-.10641-.10718-.21437 0l-3.32153 4.533c-.10797.1077 0 .21643.10692.21643zm45.75708 12.95079h2.5725c.21335 0 .42773-.21591.42773-.43182v-7.98596l8.35962 8.52547c.1064.10821.21334.2159.42823.2159h.21438c.21437 0 .42875-.2159.42875-.43233V9.82195c0-.2159-.21438-.43233-.42875-.43233h-2.57251c-.21438 0-.42824.21643-.42824.43233v7.66237l-8.3591-8.0947c-.10641-.10717-.3213-.2159-.42772-.2159h-.3213c-.21438 0-.42927.10873-.3213.43233v14.35392c-.00104.2159.21333.43182.4277.43182zm77.1546.32464h8.8953c.21334 0 .42874-.21591.42874-.43182v-2.37394c0-.2159-.2154-.4318-.42875-.4318l-5.89404-.00001v-2.91449h4.93013c.21592 0 .42823-.2159.42823-.43129v-2.37446c0-.2159-.2123-.43181-.42823-.43181h-4.93013v-2.69806h5.89404c.21335 0 .42875-.21643.42875-.4313V9.823c0-.21591-.2154-.43234-.42875-.43234h-8.8953c-.21334 0-.42565.10873-.42565.43234V24.2846c0 .21487.2123.43182.42565.43182zm-56.0435-13.81494h2.14272c.2149 0 .42927-.10873.42927-.43233V8.6342c0-.21487-.21437-.4313-.42927-.4313h-2.14272c-.2149 0-.42927.21643-.42927.4313v1.83495c0 .21694.21438.43233.42927.43233zM37.399 28.17146H26.8977c-.10797 0-.21438.1077-.10797.21539l.42927.96924v5.29103s0 .10717.10641.10717l3.85877 3.02114c.10693 0 .10693.10977.21334.10977h5.4658c.10693 0 .10693-.10977.10693-.10977v-8.41726l.53568-.97132c0-.10978 0-.21539-.10693-.21539zm8.6799-3.67198c0-12.19537-9.75126-22.01629-21.86013-22.01629-12.1099 0-21.86115 9.82092-21.86115 22.01629 0 3.99454 1.17829 7.77214 3.00022 11.0097l18.86093-.10977c.10642 0 .10642.10977.21335.10977l5.89352 4.74684c.10848.10977.10848.10977.2149.10977h8.89374c4.18007-3.99402 6.75206-9.60604 6.64462-15.86631zm2.57199 0C48.65089 37.9903 37.7203 49 24.32519 49 10.93058 49 0 37.9903 0 24.49948 0 11.00866 10.93058 0 24.32519 0c13.39512 0 24.3257 11.00866 24.3257 24.49948zm-12.10887-1.07954c0-.10717-.21438-.10717-.32234 0l-.85699 2.26729c0 .1077-.21437.1077-.3213 0l-2.78585-6.69156c0-.10874-.21438-.10874-.3213 0l-2.78638 6.69156c0 .1077-.21489.1077-.3213 0l-.96495-2.26729c0-.10717-.21386-.10717-.3213 0l-.75058 2.37498c0 .1077 0 .21539.10796.21539H37.399c.10693 0 .2149-.10977.10693-.21539l-.96391-2.37498zm117.66178-7.55467h3.21512c.85596 0 1.60705-.75593 1.60705-1.72621 0-.97184-.7511-1.61905-1.60705-1.61905h-3.21512v3.34526zm1.50167 2.69806h-1.50063v5.50486c0 .21486-.21541.43129-.42824.43129h-2.5725c-.21335 0-.42876-.21643-.42876-.4313V9.82196h.11003c0-.2159.21335-.43233.42617-.43233h6.42972c2.6784 0 4.71523 2.05138 4.71523 4.6407 0 1.94369-1.1788 3.56221-3.21511 4.3171l2.89484 5.50486c.10693.3236 0 .6472-.32234.6472h-2.89226c-.21592 0-.32234-.1077-.32234-.21643l-2.89381-5.71972zm45.86349-4.42427c0-.97184-.74955-1.61905-1.60756-1.61905h-3.2146v3.34526h3.2146c.85698 0 1.60756-.75593 1.60756-1.72621zm3.10663 9.71322c.10797.3236 0 .6472-.32233.6472h-2.89227c-.21282 0-.32234-.1077-.32234-.21643l-2.89226-5.71972h-1.4996v5.50486c0 .21486-.21386.43129-.42926.43129h-2.5689c-.21592 0-.42926-.21643-.42926-.4313V9.82196h.10693c0-.2159.21334-.43233.42875-.43233h6.42972c2.67892 0 4.71523 2.05138 4.71523 4.6407 0 1.94369-1.1814 3.56221-3.21512 4.3171l2.89072 5.50486zm-135.77214 7.4475h-1.28522c-.10745 0-.21437 0-.21437.10977l-2.46455 5.6115h-.10745l-2.46454-5.6115s-.10693-.10978-.2149-.10978H60.8667c-.21334 0-.3213.10978-.21334.32465l3.96362 8.74137s.10796.10718.2149.10718h.10744c.10693 0 .21334 0 .21334-.10718l3.9657-8.74137c.10744-.10926 0-.32465-.2149-.32465zm7.60905 0h-5.25092c-.10692 0-.21489.10977-.21489.32464v8.52443c0 .10925.10797.21694.2149.21694h5.2509c.10694 0 .21438-.10977.21438-.21694V39.0693c0-.10717-.10744-.21487-.21437-.21487h-3.85721v-2.37341h3.2146c.10693 0 .21386-.10926.21386-.21539v-1.07902c0-.10977-.10693-.21694-.21386-.21694h-3.2146v-2.15855h3.8572c.10694 0 .21438-.10978.21438-.21487v-1.07902c0-.1077-.10744-.21747-.21437-.21747zm7.39467 2.05085c-.21438-.21486-.53568-.43181-.85802-.43181h-2.25017v2.59036h2.03631v-.10769c.96392 0 1.71397-1.07901 1.07188-2.05086zm-.21438 3.34578l1.71346 3.23705c.10796.21539 0 .32464-.21438.32464h-1.39266c-.10642 0-.21438-.10925-.21438-.10925l-1.71449-3.45244h-1.39267v3.34682c0 .1077-.10796.21487-.21437.21487h-.96495c-.10693 0-.21334-.10925-.21334-.21487v-8.52599h-.10797c0-.1077.10797-.21747.21438-.21747h3.64387c1.4996 0 2.78585 1.29649 2.78585 2.80784 0 1.1841-.75057 2.15803-1.92835 2.5888zm6.53614 3.66938c-1.28626.10718-2.14324-.5395-2.57148-.86414-.10744-.10978-.21437-.21487-.10744-.43234l.42875-.75437c.10693-.21487.3213-.21487.42823-.1077.53568.43026 1.07136.7549 1.92938.7549.64313 0 1.17881-.43234 1.17881-.97184 0-.6472-.53568-1.07902-1.60756-1.50927-1.17829-.54003-2.46454-1.2944-2.46454-2.80784 0-1.1867.85698-2.48059 2.8933-2.48059 1.28625 0 2.35813.6472 2.57147.86207.10745.10925.21438.32464.10745.43181l-.53569.7549c-.10744.10925-.3213.21487-.42875.10925-.53568-.32464-1.07136-.75645-1.82193-.75645-.75058 0-1.1783.43181-1.1783.86415 0 .64928.42772.97184 1.4996 1.40365 1.28574.53951 2.67892 1.2944 2.67892 2.91345 0 1.29388-1.17829 2.59036-3.00022 2.59036z"/></svg>