<?xml version="1.0" encoding="UTF-8"?>
<svg width="245px" height="44px" viewBox="0 0 245 44" version="1.1" xmlns="http://www.w3.org/2000/svg" xmlns:xlink="http://www.w3.org/1999/xlink">
    <title>SIGNAL_IDUNA_Logo_Schutzzone_RGB_0_51_153</title>
    <desc>Created with Sketch.</desc>
    <defs></defs>
    <g id="Page-1" stroke="none" stroke-width="1" fill="none" fill-rule="evenodd">
        <g id="SIGNAL_IDUNA_Logo_Schutzzone_RGB_0_51_153">
            <path d="M11.1480751,27.8561538 L6.44476526,26.6976923 C5.76267606,26.5442308 4.4928169,26.2580769 4.4928169,24.8042308 C4.4928169,23.1888462 6.16755869,22.6165385 7.7341784,22.6165385 C11.2090376,22.6165385 11.4701408,24.6461538 11.5679108,25.4111538 L11.5840141,25.5230769 L15.7018545,25.5230769 L15.699554,25.395 C15.6569953,22.4538462 13.6233803,19.0211538 8.0286385,19.0211538 C1.02600939,19.0211538 0.486549296,23.6734615 0.486549296,25.1019231 C0.486549296,29.4473077 3.6485446,30.1903846 6.71161972,30.9092308 L8.78319249,31.3869231 C10.8881221,31.8923077 12.1809859,32.2707692 12.1809859,33.6611538 C12.1809859,35.2361538 10.8651174,36.0380769 8.26788732,36.0380769 C4.74356808,36.0380769 4.31913146,33.9426923 4.29842723,33.0415385 L4.29497653,32.9169231 L0.167934272,32.9169231 L0.167934272,33.0438462 C0.167934272,35.0307692 0.983450704,39.6403846 8.56694836,39.6403846 C9.85981221,39.6403846 16.3114789,39.3357692 16.3114789,33.1765385 C16.3114789,29.6088462 13.8292723,28.5115385 11.1480751,27.8561538" id="Fill-3" fill="#1A3691"></path>
            <polygon id="Fill-4" fill="#1A3691" points="19.1744131 39.15 23.4682394 39.15 23.4682394 19.5034615 19.1744131 19.5034615"></polygon>
            <path d="M36.0587089,31.9707692 L40.5296714,31.9707692 C39.635939,35.7484615 36.598169,35.9480769 35.9931455,35.9480769 C33.4890845,35.9480769 30.5042254,34.815 30.5042254,29.4311538 C30.5042254,24.405 33.300446,22.6165385 35.9137793,22.6165385 C38.7548592,22.6165385 40.0362207,25.0384615 40.0362207,25.665 L40.0362207,25.7919231 L44.3392488,25.7919231 L44.3277465,25.6557692 C44.1471596,23.3619231 42.1066432,19.0211538 35.657277,19.0211538 C28.6373944,19.0211538 26.1459859,24.5988462 26.1459859,29.3746154 C26.1459859,36.4707692 30.6698592,39.6403846 35.1534742,39.6403846 C38.4926056,39.6403846 40.0442723,38.0423077 41.0875352,36.8457692 L41.4694131,39.1511538 L44.4013615,39.1511538 L44.4013615,28.4376923 L36.0587089,28.4376923 L36.0587089,31.9707692" id="Fill-5" fill="#1A3691"></path>
            <polyline id="Fill-6" fill="#1A3691" points="60.1170188 32.7703846 52.503615 19.5034615 48.1350235 19.5034615 48.1350235 39.1511538 52.1401408 39.1511538 52.1401408 25.5634615 59.966338 39.1511538 64.1232864 39.1511538 64.1232864 19.5034615 60.1170188 19.5034615 60.1170188 32.7703846"></polyline>
            <path d="M77.8145305,31.5565385 L73.2342958,31.5565385 L75.5485681,24.2769231 L77.8145305,31.5565385 Z M73.1894366,19.5034615 L66.204061,39.1511538 L70.7221831,39.1511538 L72.0702582,35.1553846 L79.0211268,35.1553846 L80.2633803,39.1511538 L84.9206808,39.1511538 L78.0169718,19.5034615 L73.1894366,19.5034615 Z" id="Fill-7" fill="#1A3691"></path>
            <polyline id="Fill-8" fill="#1A3691" points="91.4965728 19.5034615 87.1969953 19.5034615 87.1969953 39.1511538 101.111385 39.1511538 101.111385 35.3942308 91.4965728 35.3942308 91.4965728 19.5034615"></polyline>
            <polygon id="Fill-9" fill="#1A3691" points="110.461643 39.15 114.76007 39.15 114.76007 19.5034615 110.461643 19.5034615"></polygon>
            <path d="M126.609789,23.0988462 C128.469718,23.0988462 130.943873,23.7276923 130.943873,29.16 C130.943873,30.6657692 130.640211,35.5546154 126.652347,35.5546154 L122.840469,35.5546154 L122.840469,23.0988462 L126.609789,23.0988462 Z M127.309131,19.5034615 L118.639812,19.5034615 L118.639812,39.1511538 L127.146948,39.1511538 C133.163826,39.1511538 135.302113,33.8411538 135.302113,28.8680769 C135.302113,26.6723077 134.724695,19.5034615 127.309131,19.5034615 Z" id="Fill-10" fill="#1A3691"></path>
            <path d="M149.439648,32.3792308 C149.439648,34.8126923 148.244554,35.9480769 145.67838,35.9480769 C143.598756,35.9480769 142.356502,34.5403846 142.356502,32.1876923 L142.356502,19.5034615 L137.989061,19.5034615 L137.989061,32.4623077 C138.050023,34.605 138.541174,36.1223077 139.523474,37.2380769 C141.399507,39.3311538 144.230235,39.6403846 145.757746,39.6403846 C151.030423,39.6403846 153.826643,37.0776923 153.826643,32.2257692 L153.826643,19.5034615 L149.439648,19.5034615 L149.439648,32.3792308" id="Fill-11" fill="#1A3691"></path>
            <polyline id="Fill-12" fill="#1A3691" points="169.346761 32.7507692 161.743709 19.5034615 157.369366 19.5034615 157.369366 39.1511538 161.387136 39.1511538 161.387136 25.5842308 169.213333 39.1511538 173.367981 39.1511538 173.367981 19.5034615 169.346761 19.5034615 169.346761 32.7507692"></polyline>
            <path d="M187.055775,31.5565385 L182.459437,31.5565385 L184.781761,24.2769231 L187.055775,31.5565385 Z M187.253615,19.5034615 L182.434131,19.5034615 L175.438404,39.1511538 L179.968028,39.1511538 L181.318404,35.1553846 L188.255469,35.1553846 L189.504624,39.1511538 L194.168826,39.1511538 L187.253615,19.5034615 Z" id="Fill-13" fill="#1A3691"></path>
            <path d="M216.856056,19.5103846 L225.946362,19.5103846 C220.471244,34.5219231 218.39277,40.2126923 217.597958,42.3830769 C210.100728,39.1938462 204.926972,31.1953846 204.926972,22.0973077 C204.926972,10.2911538 213.634249,0.348461538 224.815681,0.348461538 C236.001714,0.348461538 244.70669,10.2911538 244.70669,22.0973077 C244.70669,33.9092308 236.001714,43.8519231 224.815681,43.8519231 C223.29277,43.8519231 221.810117,43.6673077 220.405681,43.3176923 L229.088803,19.5103846 L235.278216,19.5103846 L228.155962,39.0611538 C235.010211,37.3615385 240.336948,30.5538462 240.336948,22.0973077 C240.336948,12.2942308 233.188239,4.72961538 224.815681,4.72961538 C216.443122,4.72961538 209.296714,12.2942308 209.296714,22.0973077 C209.296714,25.9223077 210.374484,29.4023077 212.212559,32.2373077 L216.856056,19.5103846" id="Fill-14" fill="#1A3691"></path>
        </g>
    </g>
</svg>